<svg height='100px' width='100px'  fill="#FFFFFF" xmlns="http://www.w3.org/2000/svg" xmlns:cc="http://creativecommons.org/ns#" xmlns:dc="http://purl.org/dc/elements/1.1/" xmlns:rdf="http://www.w3.org/1999/02/22-rdf-syntax-ns#" version="1.1" viewBox="0 0 100 100" x="0px" y="0px"><path d="m12.316 4.791c-3.9906 0-7.25 3.2594-7.25 7.25v63.934c0 3.9906 3.2594 7.25 7.25 7.25l62.574 0.001953-3.0977-3-59.477-0.001953c-2.3804-7.8e-5 -4.25-1.8696-4.25-4.25v-63.934c0-2.3804 1.8696-4.25 4.25-4.25h63.934c2.3804 0 4.25 1.8696 4.25 4.25v59.74l3 2.8164v-62.557c2e-5 -3.9906-3.2594-7.25-7.25-7.25h-63.934zm12.842 10.725c-2.0285-0.02869-2.0285 3.0287 0 3h38.25c2.0285 0.02869 2.0285-3.0287 0-3h-38.25zm20.836 8.9922c-6.3552-0.068965-12.715 2.4353-17.373 7.4492-8.7675 9.4379-8.2231 24.242 1.2148 33.01 9.106 8.4591 23.207 8.246 32.062-0.25586l2.9434 2.8984c-0.2211 0.34564-0.40357 0.69898-0.53906 1.0645-0.14 0.37763-0.24023 0.76915-0.22656 1.2363 0.01367 0.46718 0.1881 1.077 0.6582 1.5137l25.016 23.238c0.4701 0.4367 1.0917 0.56565 1.5586 0.54492 0.46692-0.02073 0.8505-0.14901 1.2168-0.31641 0.73262-0.33478 1.405-0.85886 2.0332-1.5352l0.26758-0.28906c0.62825-0.67629 1.1009-1.3854 1.3809-2.1406 0.14-0.37762 0.24023-0.76915 0.22656-1.2363-0.01367-0.46718-0.1881-1.075-0.6582-1.5117l-25.016-23.24c-0.4701-0.4367-1.0897-0.56565-1.5566-0.54492-0.46692 0.02073-0.85049 0.15097-1.2168 0.31836-0.38779 0.17721-0.75847 0.40834-1.1152 0.68555l-2.9453-2.9023c7.6176-9.4534 6.7327-23.364-2.2969-31.752-4.424-4.1098-10.027-6.1735-15.635-6.2344zm-1.0117 2.9941c5.203-0.19127 10.48 1.6055 14.605 5.4375 8.2501 7.664 8.7245 20.519 1.0605 28.77-7.664 8.2501-20.519 8.7245-28.77 1.0605-8.2501-7.664-8.7245-20.521-1.0605-28.771 3.832-4.125 8.9611-6.3048 14.164-6.4961zm-31.324 2.2637c-2.0285-0.02869-2.0285 3.0287 0 3h11.883c0.53012-0.7258 1.0986-1.4228 1.7031-2.0879 0.30392-0.31206 0.61588-0.6162 0.93555-0.91211h-14.521zm49.641 0c0.95746 0.92869 1.8398 1.9318 2.6387 3h8.9707c2.0285 0.02869 2.0285-3.0287 0-3h-11.609zm-4.7266 7.6934a1.5002 1.5002 0 0 0-1.0391 0.43359l-17.24 16.604-6.2051-8.2402a1.5002 1.5002 0 1 0-2.3965 1.8047l7.2246 9.5938a1.5002 1.5002 0 0 0 2.2402 0.17773l18.457-17.779a1.5002 1.5002 0 0 0-1.041-2.5938zm-44.914 5.6387c-2.0285-0.02869-2.0285 3.0287 0 3h6.9102c0.07139-1.007 0.20314-2.0088 0.39453-3h-7.3047zm56.83 0c0.18943 0.99133 0.31922 1.9931 0.38867 3h4.0312c2.0285 0.02869 2.0285-3.0287 0-3h-4.4199zm-56.83 13.334c-2.0285-0.02869-2.0285 3.0287 0 3h9.6875c-0.50465-0.97033-0.94568-1.9724-1.3203-3h-8.3672zm55.779 0c-0.36257 1.0266-0.7912 2.0287-1.2832 3h6.7539c2.0285 0.02869 2.0285-3.0287 0-3h-5.4707zm-0.30859 11.086 24.193 22.475c-0.11332 0.25819-0.33064 0.64275-0.69336 1.0332l-0.26953 0.28906c-0.36272 0.39045-0.72936 0.63557-0.97852 0.76758l-24.193-22.475c0.11336-0.2582 0.33072-0.64284 0.69336-1.0332l0.26758-0.28906c0.36263-0.39037 0.7313-0.63553 0.98047-0.76758zm-55.471 2.248c-2.0285-0.02869-2.0285 3.0287 0 3h28.188c-3.0153-0.47337-5.9198-1.4898-8.5723-3h-19.615zm44.586 0c-2.677 1.5193-5.6094 2.536-8.6523 3h14.74s-1.1699-1.0374-1.457-1.4688c-0.35274-0.53005-0.35082-1.0915-0.33789-1.5312h-4.293z" color="#000000" color-rendering="auto" dominant-baseline="auto" image-rendering="auto" shape-rendering="auto" solid-color="#000000" style="font-feature-settings:normal;font-variant-alternates:normal;font-variant-caps:normal;font-variant-ligatures:normal;font-variant-numeric:normal;font-variant-position:normal;isolation:auto;mix-blend-mode:normal;shape-padding:0;text-decoration-color:#000000;text-decoration-line:none;text-decoration-style:solid;text-indent:0;text-orientation:mixed;text-transform:none;white-space:normal;"></path></svg>