<svg height='100px' width='100px'  fill="#FFFFFF" xmlns="http://www.w3.org/2000/svg" xmlns:xlink="http://www.w3.org/1999/xlink" version="1.1" x="0px" y="0px" viewBox="-32 124.7 100 100" enable-background="new -32 124.7 100 100" xml:space="preserve"><path fill="#FFFFFF" d="M-0.8,156.5c-14.9,0-27,11.7-27,26.2c0,6.8,2.7,13.1,7.2,17.7c-0.2,4.5-0.9,10.7-3.6,13.8  c5.2,0,10.4-4.2,13.6-7.2c3.1,1.2,6.4,1.8,9.9,1.8c14.9,0,27-11.7,27-26.2C26.3,168.1,14.1,156.5-0.8,156.5z M-0.8,206.5  c-3.1,0-6.2-0.6-9.1-1.7l-1.3-0.5l-1,1c-1.8,1.7-4.6,4.2-7.7,5.5c0.9-2.8,1.5-6.2,1.6-10.4v-1l-0.7-0.7c-4.2-4.4-6.5-10.2-6.5-16.2  c-0.1-13.1,11-23.8,24.7-23.8c13.6,0,24.7,10.7,24.7,23.9C23.9,195.8,12.8,206.5-0.8,206.5z M60.7,192.8c-1.9-2.2-3.1-6.7-3.3-12.6  c4.6-5,7.1-11.4,7.1-18.2c0-15.1-12.6-27.3-28.1-27.3c-10.3,0-19.8,5.5-24.7,14.2c-0.3,0.5-0.1,1.2,0.4,1.5s1.2,0.1,1.5-0.4  c4.5-8.1,13.3-13.1,22.7-13.1c14.3,0,25.9,11.2,25.9,25c0,6.3-2.4,12.3-6.8,17l-0.3,0.3v0.5c0.1,3.9,0.7,8.8,2.5,12.3  c-4.2-1-8.3-4.4-10.5-6.6l-0.5-0.5l-0.7,0.3c-3,1.2-6.2,1.8-9.5,1.8c-0.6,0-1.1,0.5-1.1,1.1c0,0.6,0.5,1.1,1.1,1.1  c3.3,0,6.6-0.6,9.7-1.7c3.6,3.3,8.7,7,13.8,7h2.5L60.7,192.8z M30.5,158.5c-1.5,0-2.6,1.2-2.6,2.6c0,1.5,1.2,2.6,2.6,2.6  c1.5,0,2.6-1.2,2.6-2.6C33.1,159.6,32,158.5,30.5,158.5z M38.6,158.5c-1.5,0-2.6,1.2-2.6,2.6c0,1.5,1.2,2.6,2.6,2.6s2.6-1.2,2.6-2.6  C41.2,159.6,40,158.5,38.6,158.5z M46.7,158.5c-1.5,0-2.6,1.2-2.6,2.6c0,1.5,1.2,2.6,2.6,2.6c1.5,0,2.6-1.2,2.6-2.6  C49.3,159.6,48.1,158.5,46.7,158.5z M-7.2,173.9c0.4-0.3,0.8-0.7,1.2-1c0.4-0.3,0.9-0.6,1.4-0.8c0.5-0.2,1.1-0.4,1.7-0.6  s1.3-0.2,2-0.2c0.9,0,1.8,0.1,2.6,0.4s1.5,0.6,2,1.1c0.6,0.5,1,1.1,1.4,1.8c0.3,0.7,0.5,1.5,0.5,2.4c0,0.9-0.1,1.7-0.4,2.3  c-0.3,0.6-0.6,1.2-1,1.7s-0.8,0.9-1.3,1.3c-0.5,0.4-0.9,0.7-1.3,1c-0.4,0.3-0.8,0.6-1.1,0.9s-0.6,0.3-0.7,0.7l-0.2,0.9h-2.1  l-0.2-1.9c0-0.5,0.1-0.5,0.3-0.9c0.2-0.4,0.6-0.5,1-0.8s0.8-0.6,1.3-0.9c0.5-0.3,0.9-0.6,1.3-1c0.4-0.4,0.8-0.8,1-1.4  c0.3-0.5,0.4-1.1,0.4-1.9c0-0.5-0.1-1-0.3-1.4c-0.2-0.4-0.5-0.8-0.8-1c-0.3-0.3-0.7-0.5-1.2-0.7s-1-0.2-1.5-0.2  c-0.7,0-1.3,0.1-1.8,0.3c-0.5,0.2-0.9,0.4-1.3,0.6s-0.6,0.4-0.9,0.6c-0.2,0.2-0.4,0.3-0.5,0.3c-0.3,0-0.5-0.1-0.7-0.4L-7.2,173.9z   M-3.5,192.6c0-0.3,0-0.5,0.1-0.8c0.1-0.2,0.2-0.4,0.4-0.6c0.2-0.2,0.4-0.3,0.6-0.4c0.2-0.1,0.5-0.2,0.8-0.2s0.5,0.1,0.8,0.2  c0.2,0.1,0.4,0.2,0.6,0.4c0.2,0.2,0.3,0.4,0.4,0.6c0.1,0.2,0.2,0.5,0.2,0.8s-0.1,0.5-0.2,0.8c-0.1,0.2-0.2,0.4-0.4,0.6  c-0.2,0.2-0.4,0.3-0.6,0.4c-0.2,0.1-0.5,0.1-0.8,0.1s-0.5,0-0.8-0.1c-0.2-0.1-0.4-0.2-0.6-0.4s-0.3-0.4-0.4-0.6  C-3.4,193.1-3.5,192.8-3.5,192.6z"></path></svg>