<svg height='100px' width='100px'  fill="#FFFFFF" xmlns="http://www.w3.org/2000/svg" viewBox="0 0 80 80" x="0px" y="0px"><title>notetype_glyphs</title><g><path d="M61.6,47.2H59.2V40a2.4,2.4,0,0,0-2.4-2.4H42.4V32.8h2.4A4.81,4.81,0,0,0,49.6,28V18.4a4.8,4.8,0,0,0-4.8-4.8H35.2a4.8,4.8,0,0,0-4.8,4.8V28a4.81,4.81,0,0,0,4.8,4.8h2.4v4.8H23.2A2.4,2.4,0,0,0,20.8,40v7.2H18.4A4.81,4.81,0,0,0,13.6,52v9.6a4.81,4.81,0,0,0,4.8,4.8H28a4.81,4.81,0,0,0,4.8-4.8V52A4.81,4.81,0,0,0,28,47.2H25.6V42.4H54.4v4.8H52A4.81,4.81,0,0,0,47.2,52v9.6A4.81,4.81,0,0,0,52,66.4h9.6a4.81,4.81,0,0,0,4.8-4.8V52A4.81,4.81,0,0,0,61.6,47.2ZM35.2,18.4h9.6V28H35.2ZM28,61.6H18.4V52H28Zm24,0V52h9.6v9.6Z"></path></g></svg>