<svg height='100px' width='100px'  fill="#FFFFFF" xmlns="http://www.w3.org/2000/svg" xmlns:xlink="http://www.w3.org/1999/xlink" version="1.1" x="0px" y="0px" viewBox="0 0 100 100" enable-background="new 0 0 100 100" xml:space="preserve"><g><path d="M70.9,16.9v78.7H16.3V16.9H70.9 M72.8,15H14.5v82.5h58.3V15L72.8,15z"></path></g><rect x="21.4" y="85.5" width="44.4" height="1.9"></rect><rect x="21.4" y="79.2" width="44.4" height="1.9"></rect><rect x="21.4" y="73" width="44.4" height="1.9"></rect><rect x="21.4" y="66.7" width="44.4" height="1.9"></rect><rect x="21.4" y="60.4" width="44.4" height="1.9"></rect><rect x="21.4" y="54.2" width="44.4" height="1.9"></rect><rect x="21.4" y="47.9" width="44.4" height="1.9"></rect><rect x="21.4" y="41.6" width="44.4" height="1.9"></rect><g><rect x="35.9" y="29.1" width="15.3" height="1.9"></rect></g><g><rect x="21.4" y="35.4" width="44.4" height="1.9"></rect></g><polygon points="79.1,8.8 20.7,8.8 20.7,13.3 22.6,13.3 22.6,10.6 77.2,10.6 77.2,89.4 74.5,89.4 74.5,90.6 74.5,90.9 74.5,91.2   79.1,91.2 "></polygon><polygon points="85.3,2.5 27,2.5 27,7 27.2,7 28.9,7 28.9,4.4 83.5,4.4 83.5,83.1 80.8,83.1 80.8,83.3 80.8,83.5 80.8,83.9 80.8,85   85.3,85 "></polygon></svg>