<svg height='100px' width='100px'  fill="#FFFFFF" xmlns:dc="http://purl.org/dc/elements/1.1/" xmlns:cc="http://creativecommons.org/ns#" xmlns:rdf="http://www.w3.org/1999/02/22-rdf-syntax-ns#" xmlns:svg="http://www.w3.org/2000/svg" xmlns="http://www.w3.org/2000/svg" xmlns:sodipodi="http://sodipodi.sourceforge.net/DTD/sodipodi-0.dtd" xmlns:inkscape="http://www.inkscape.org/namespaces/inkscape" version="1.1" x="0px" y="0px" viewBox="0 0 100 100"><g transform="translate(0,-952.36218)"><path style="font-size:medium;font-style:normal;font-variant:normal;font-weight:normal;font-stretch:normal;text-indent:0;text-align:start;text-decoration:none;line-height:normal;letter-spacing:normal;word-spacing:normal;text-transform:none;direction:ltr;block-progression:tb;writing-mode:lr-tb;text-anchor:start;baseline-shift:baseline;opacity:1;color:#000000;fill:#FFFFFF;fill-opacity:1;stroke:none;stroke-width:6;marker:none;visibility:visible;display:inline;overflow:visible;enable-background:accumulate;font-family:Sans;-inkscape-font-specification:Sans" d="M 50 5 C 25.182705 5 5 25.18274 5 50 C 5 74.8173 25.18271 95 50 95 C 74.817291 95 95 74.8174 95 50 A 3.0003 3.0003 0 1 0 89 50 C 89 71.5748 71.574659 89 50 89 C 28.425342 89 11 71.5747 11 50 C 11 28.42538 28.425347 11 50 11 C 61.153759 11 71.301196 15.58823 78.4375 23 L 70.40625 23 A 3.0003 3.0003 0 1 0 70.40625 29 L 84.8125 29 A 3.0003 3.0003 0 0 0 87.8125 26 L 87.8125 11.59375 A 3.0003 3.0003 0 0 0 84.75 8.53125 A 3.0003 3.0003 0 0 0 81.8125 11.59375 L 81.8125 17.875 C 73.615577 9.8628178 62.308129 5 50 5 z M 48.75 25.75 A 3.0003 3.0003 0 0 0 45.8125 28.8125 L 45.8125 52.375 A 3.0003 3.0003 0 0 0 46.6875 54.5 L 59.09375 66.9375 A 3.0052038 3.0052038 0 0 0 63.34375 62.6875 L 51.8125 51.1875 L 51.8125 28.8125 A 3.0003 3.0003 0 0 0 48.75 25.75 z " transform="translate(0,952.36218)"></path></g></svg>