<?xml version="1.0" ?><!DOCTYPE svg  PUBLIC '-//W3C//DTD SVG 1.1//EN'  'http://www.w3.org/Graphics/SVG/1.1/DTD/svg11.dtd'><svg enable-background="new 0 0 56.693 56.693" height="56.693px" id="Layer_1" version="1.1" viewBox="0 0 56.693 56.693" width="56.693px" xml:space="preserve" xmlns="http://www.w3.org/2000/svg" xmlns:xlink="http://www.w3.org/1999/xlink"><g><path d="M50.441,45.384H25.434c-0.947,0-1.716,0.768-1.716,1.717c0,0.947,0.769,1.715,1.716,1.715h25.008   c0.947,0,1.716-0.768,1.716-1.715C52.157,46.151,51.389,45.384,50.441,45.384z" fill="#474A56"/><path d="M50.441,28.635H25.434c-0.947,0-1.716,0.768-1.716,1.717c0,0.947,0.769,1.715,1.716,1.715h25.008   c0.947,0,1.716-0.768,1.716-1.715C52.157,29.403,51.389,28.635,50.441,28.635z" fill="#474A56"/><path d="M25.434,15.319h25.008c0.947,0,1.716-0.768,1.716-1.715c0-0.949-0.769-1.717-1.716-1.717H25.434   c-0.947,0-1.716,0.768-1.716,1.717C23.718,14.551,24.486,15.319,25.434,15.319z" fill="#474A56"/><path d="M18.226,23.489H7.931c-0.947,0-1.715,0.768-1.715,1.715v10.295c0,0.947,0.768,1.717,1.715,1.717h10.295   c0.947,0,1.716-0.77,1.716-1.717V25.204C19.941,24.256,19.173,23.489,18.226,23.489z M16.51,33.784H9.647V26.92h6.862V33.784z" fill="#474A56"/><path d="M18.226,40.237H7.931c-0.947,0-1.715,0.768-1.715,1.715v10.295c0,0.947,0.768,1.715,1.715,1.715h10.295   c0.947,0,1.716-0.768,1.716-1.715V41.952C19.941,41.005,19.173,40.237,18.226,40.237z M16.51,50.53H9.647v-6.861h6.862V50.53z" fill="#474A56"/><path d="M21.886,5.825c-0.715-0.514-1.789-0.373-2.332,0.303l-8.021,9.946L8.894,13.12   c-0.575-0.643-1.668-0.732-2.344-0.189c-0.354,0.283-0.567,0.682-0.604,1.125c-0.037,0.438,0.106,0.863,0.403,1.197l3.977,4.453   c0.32,0.357,0.784,0.562,1.272,0.562c0.005,0,0.036,0,0.041-0.001c0.506-0.012,0.974-0.238,1.284-0.625l9.282-11.508   c0.278-0.348,0.4-0.777,0.343-1.214C22.487,6.478,22.253,6.09,21.886,5.825z" fill="#474A56"/></g></svg>