<?xml version="1.0" ?><svg data-name="011" id="_011" viewBox="0 0 128 128" xmlns="http://www.w3.org/2000/svg"><defs><style>.cls-1,.cls-10,.cls-20,.cls-22,.cls-23,.cls-28,.cls-31{opacity:0.3;}.cls-18,.cls-2{fill:#c7bff3;}.cls-3{fill:#f0ecd3;}.cls-25,.cls-4{fill:#6d6da8;}.cls-5{fill:#fff8cf;}.cls-6{fill:#def1ff;}.cls-7{fill:#ff948a;}.cls-8{fill:#fff0ca;}.cls-9{fill:#ff9595;}.cls-10{fill:#fff7de;}.cls-11{fill:#ccd6ec;}.cls-12{fill:#ecf4ff;}.cls-13,.cls-17,.cls-19,.cls-27{fill:#fff;}.cls-14,.cls-17,.cls-19,.cls-25{opacity:0.5;}.cls-15{fill:#231f20;}.cls-16{fill:#afefa6;}.cls-18,.cls-19,.cls-20{fill-rule:evenodd;}.cls-20{fill:#554dab;}.cls-21{fill:#ffd397;}.cls-22{fill:#bd8f4c;}.cls-23{fill:#768ea6;}.cls-24{fill:#5eca9e;}.cls-26{fill:#eef6ff;}.cls-27{opacity:0.3;}.cls-28{fill:#5cbcff;}.cls-29{fill:#939fc6;}.cls-30{fill:#6d6daa;}.cls-31{fill:#5cbeff;}</style></defs><title/><g class="cls-1"><path class="cls-2" d="M125.7,51.66a30,30,0,0,0-23.51-25,19.71,19.71,0,0,1-10.93-6.55A37,37,0,0,0,27,35.44,21,21,0,0,1,16.12,49.11C2,56.47-5.14,75.57,7.77,93.5a16.59,16.59,0,0,0,6.35,4.91,20.53,20.53,0,0,1,10,10.87,28.48,28.48,0,0,0,42.62,12.64A20.05,20.05,0,0,1,83.39,119a29,29,0,0,0,36-33.8,20.08,20.08,0,0,1,2.51-14.13A29.89,29.89,0,0,0,125.7,51.66Z"/><rect class="cls-3" height="21" width="6" x="85.01" y="57"/><path class="cls-4" d="M91,79H85a1,1,0,0,1-1-1V57a1,1,0,0,1,1-1h6a1,1,0,0,1,1,1V78A1,1,0,0,1,91,79Zm-5-2h4V58H86Z"/><rect class="cls-5" height="6" width="44" x="79.01" y="78"/><path class="cls-4" d="M123,85H79a1,1,0,0,1-1-1V78a1,1,0,0,1,1-1h44a1,1,0,0,1,1,1v6A1,1,0,0,1,123,85ZM80,83h42V79H80Z"/><rect class="cls-6" height="21" width="6" x="102.01" y="18"/><path class="cls-4" d="M108,40h-6a1,1,0,0,1-1-1V18a1,1,0,0,1,1-1h6a1,1,0,0,1,1,1V39A1,1,0,0,1,108,40Zm-5-2h4V19h-4Z"/><rect class="cls-6" height="12" width="15" x="82.01" y="27"/><path class="cls-4" d="M97,40H82a1,1,0,0,1-1-1V27a1,1,0,0,1,1-1H97a1,1,0,0,1,1,1V39A1,1,0,0,1,97,40ZM83,38H96V28H83Z"/><rect class="cls-6" height="5" width="17" x="81.01" y="22"/><path class="cls-4" d="M98,28H81a1,1,0,0,1-1-1V22a1,1,0,0,1,1-1H98a1,1,0,0,1,1,1v5A1,1,0,0,1,98,28ZM82,26H97V23H82Z"/><rect class="cls-7" height="21" width="6" x="108.01" y="18"/><path class="cls-4" d="M114,40h-6a1,1,0,0,1-1-1V18a1,1,0,0,1,1-1h6a1,1,0,0,1,1,1V39A1,1,0,0,1,114,40Zm-5-2h4V19h-4Z"/><rect class="cls-6" height="21" width="6" x="97.01" y="57"/><path class="cls-4" d="M103,79H97a1,1,0,0,1-1-1V57a1,1,0,0,1,1-1h6a1,1,0,0,1,1,1V78A1,1,0,0,1,103,79Zm-5-2h4V58H98Z"/><rect class="cls-7" height="21" width="6" x="91.01" y="57"/><path class="cls-4" d="M97,79H91a1,1,0,0,1-1-1V57a1,1,0,0,1,1-1h6a1,1,0,0,1,1,1V78A1,1,0,0,1,97,79Zm-5-2h4V58H92Z"/><rect class="cls-8" height="21" width="6" x="114.01" y="18"/><path class="cls-4" d="M120,40h-6a1,1,0,0,1-1-1V18a1,1,0,0,1,1-1h6a1,1,0,0,1,1,1V39A1,1,0,0,1,120,40Zm-5-2h4V19h-4Z"/><rect class="cls-5" height="6" width="44" x="79.01" y="39"/><path class="cls-4" d="M123,46H79a1,1,0,0,1-1-1V39a1,1,0,0,1,1-1h44a1,1,0,0,1,1,1v6A1,1,0,0,1,123,46ZM80,44h42V40H80Z"/><path class="cls-4" d="M92,32H87a1,1,0,0,1,0-2h5a1,1,0,0,1,0,2Z"/><path class="cls-4" d="M47,120H11a1,1,0,0,1,0-2H47a1,1,0,0,1,0,2Z"/><path class="cls-4" d="M50.15,120H50a1,1,0,0,1,0-2h.15a1,1,0,1,1,0,2Z"/><path class="cls-4" d="M8,120H7a1,1,0,0,1,0-2H8a1,1,0,0,1,0,2Z"/><path class="cls-4" d="M112,120H81a1,1,0,0,1,0-2h31a1,1,0,0,1,0,2Z"/><path class="cls-4" d="M119.15,120H115a1,1,0,0,1,0-2h4.15a1,1,0,0,1,0,2Z"/><path class="cls-4" d="M78,120H76a1,1,0,0,1,0-2h2a1,1,0,0,1,0,2Z"/><circle class="cls-5" cx="53.98" cy="31.26" r="7"/><path class="cls-4" d="M54,39.26a8,8,0,1,1,5.66-2.34h0A8,8,0,0,1,54,39.26Zm0-14a6,6,0,1,0,4.24,10.25h0A6,6,0,0,0,54,25.26Z"/><path class="cls-9" d="M60.23,16h-8.5L44.58,8.85a9.2,9.2,0,0,0-12.51-.62,9,9,0,0,0-.43,13.13L39,28.73v8.5A6.8,6.8,0,0,0,41,42l1.55,1.55,24-24L65,18A6.8,6.8,0,0,0,60.23,16Z"/><path class="cls-10" d="M43,24.73l-7.36-7.37a9,9,0,0,1-2-9.68,7.88,7.88,0,0,0-1.34.65,9,9,0,0,0,1.33,11L41,26.73l2-2Z"/><path class="cls-10" d="M35.38,6.43a8.92,8.92,0,0,1,.93-2.1,8.14,8.14,0,0,0-1.24.9,8.94,8.94,0,0,0-1.76,2.1A8.44,8.44,0,0,1,35.38,6.43Z"/><path class="cls-10" d="M43,24.73l-2,2,1,7.5A6.8,6.8,0,0,0,44,39l1.55,1.55,3-3C45,36.38,43.38,31.74,43,24.73Z"/><path class="cls-4" d="M42.54,44.58h0a1,1,0,0,1-.71-.3l-1.55-1.54A7.75,7.75,0,0,1,38,37.23V29.14l-7.07-7.07a10,10,0,0,1,.48-14.6,10.19,10.19,0,0,1,13.88.68L52.14,15h8.09a7.75,7.75,0,0,1,5.51,2.28l1.54,1.55a1,1,0,0,1,0,1.41l-24,24A1,1,0,0,1,42.54,44.58ZM37.89,7.06A7.78,7.78,0,0,0,32.73,9a8,8,0,0,0-.39,11.68L39.71,28a1,1,0,0,1,.29.71v8.5a5.77,5.77,0,0,0,1.7,4.1l.84.83L65.16,19.54l-.83-.84a5.77,5.77,0,0,0-4.1-1.7h-8.5a1,1,0,0,1-.71-.29L43.88,9.56A8.48,8.48,0,0,0,37.89,7.06Z"/><path class="cls-4" d="M49.5,19.5a1,1,0,0,1-.71-.29,1,1,0,0,1,0-1.42l2.5-2.5a1,1,0,0,1,1.42,1.42l-2.5,2.5A1,1,0,0,1,49.5,19.5Z"/><path class="cls-4" d="M39,30a1,1,0,0,1-.71-.29,1,1,0,0,1,0-1.42l6.5-6.5a1,1,0,0,1,1.42,1.42l-6.5,6.5A1,1,0,0,1,39,30Z"/><path class="cls-4" d="M29,28a1,1,0,0,1-.71-.29,1,1,0,0,1,0-1.42l4-4a1,1,0,0,1,1.42,1.42l-4,4A1,1,0,0,1,29,28Z"/><polygon class="cls-11" points="8.69 55.53 21 83 17 85 4.41 57.12 8.69 55.53"/><path class="cls-4" d="M17,86a1,1,0,0,1-.34-.06,1,1,0,0,1-.57-.53L3.5,57.53a1,1,0,0,1,0-.8.94.94,0,0,1,.57-.55L8.34,54.6a1,1,0,0,1,1.26.53L21.91,82.59a1,1,0,0,1-.46,1.3l-4,2A1,1,0,0,1,17,86ZM5.76,57.68l11.72,26,2.21-1.11L8.16,56.8Z"/><path class="cls-11" d="M5,90H33a2,2,0,0,1,2,2v2a0,0,0,0,1,0,0H3a0,0,0,0,1,0,0V92A2,2,0,0,1,5,90Z"/><path class="cls-4" d="M35,95H3a1,1,0,0,1-1-1V92a3,3,0,0,1,3-3H33a3,3,0,0,1,3,3v2A1,1,0,0,1,35,95ZM4,93H34V92a1,1,0,0,0-1-1H5a1,1,0,0,0-1,1Z"/><path class="cls-12" d="M28,90H8a8,8,0,0,1,8-8h6a8,8,0,0,1,8,8Z"/><path class="cls-13" d="M16,85h6a8,8,0,0,1,7.41,5H30a8,8,0,0,0-8-8H16a8,8,0,0,0-8,8h.59A8,8,0,0,1,16,85Z"/><path class="cls-4" d="M28,91H8a1,1,0,0,1-1-1,9,9,0,0,1,9-9h6a9,9,0,0,1,9,9,1,1,0,0,1-1,1ZM9.06,89H28.92A7,7,0,0,0,22,83H16A7,7,0,0,0,9.06,89Z"/><polygon class="cls-11" points="26.01 32.23 9.03 55.53 5.28 54.79 24.39 30.97 26.01 32.23"/><path class="cls-4" d="M9,56.53H8.84l-3.75-.75a1,1,0,0,1-.75-.63,1,1,0,0,1,.16-1L23.61,30.34A1,1,0,0,1,25,30.18l1.62,1.26a1,1,0,0,1,.2,1.38l-17,23.3A1,1,0,0,1,9,56.53Zm-1.94-2.4,1.51.3,16-22-.08-.06Z"/><circle class="cls-12" cx="7" cy="57" r="4"/><path class="cls-4" d="M7,62a5,5,0,1,1,5-5A5,5,0,0,1,7,62Zm0-8a3,3,0,1,0,3,3A3,3,0,0,0,7,54Z"/><path class="cls-4" d="M22.88,28.25A1,1,0,0,1,22.2,28l-3.72-3.4a1,1,0,0,1,1.34-1.48l3.73,3.4a1,1,0,0,1,.06,1.41A1,1,0,0,1,22.88,28.25Z"/><path class="cls-4" d="M19,88a1,1,0,0,1-1-1V86a1,1,0,0,1,2,0v1A1,1,0,0,1,19,88Z"/><circle class="cls-12" cx="26" cy="30" r="4"/><path class="cls-4" d="M26,35a5,5,0,1,1,5-5A5,5,0,0,1,26,35Zm0-8a3,3,0,1,0,3,3A3,3,0,0,0,26,27Z"/><g class="cls-14"><path class="cls-4" d="M114,23h-6a1,1,0,0,1,0-2h6a1,1,0,0,1,0,2Z"/><path class="cls-4" d="M114,36h-6a1,1,0,0,1,0-2h6a1,1,0,0,1,0,2Z"/></g><g class="cls-14"><path class="cls-4" d="M120,23h-6a1,1,0,0,1,0-2h6a1,1,0,0,1,0,2Z"/><path class="cls-4" d="M120,36h-6a1,1,0,0,1,0-2h6a1,1,0,0,1,0,2Z"/><path class="cls-15" d="M120,23h-6a1,1,0,0,1,0-2h6a1,1,0,0,1,0,2Z"/><path class="cls-15" d="M120,36h-6a1,1,0,0,1,0-2h6a1,1,0,0,1,0,2Z"/></g><g class="cls-14"><path class="cls-4" d="M108,23h-6a1,1,0,0,1,0-2h6a1,1,0,0,1,0,2Z"/><path class="cls-4" d="M108,36h-6a1,1,0,0,1,0-2h6a1,1,0,0,1,0,2Z"/><path class="cls-15" d="M108,23h-6a1,1,0,0,1,0-2h6a1,1,0,0,1,0,2Z"/><path class="cls-15" d="M108,36h-6a1,1,0,0,1,0-2h6a1,1,0,0,1,0,2Z"/></g><g class="cls-14"><path class="cls-4" d="M97,62H91a1,1,0,0,1,0-2h6a1,1,0,0,1,0,2Z"/><path class="cls-4" d="M97,75H91a1,1,0,0,1,0-2h6a1,1,0,0,1,0,2Z"/></g><g class="cls-14"><path class="cls-4" d="M103,62H97a1,1,0,0,1,0-2h6a1,1,0,0,1,0,2Z"/><path class="cls-4" d="M103,75H97a1,1,0,0,1,0-2h6a1,1,0,0,1,0,2Z"/><path class="cls-15" d="M103,62H97a1,1,0,0,1,0-2h6a1,1,0,0,1,0,2Z"/><path class="cls-15" d="M103,75H97a1,1,0,0,1,0-2h6a1,1,0,0,1,0,2Z"/></g><g class="cls-14"><path class="cls-4" d="M91,62H85a1,1,0,0,1,0-2h6a1,1,0,0,1,0,2Z"/><path class="cls-4" d="M91,75H85a1,1,0,0,1,0-2h6a1,1,0,0,1,0,2Z"/><path class="cls-15" d="M91,62H85a1,1,0,0,1,0-2h6a1,1,0,0,1,0,2Z"/><path class="cls-15" d="M91,75H85a1,1,0,0,1,0-2h6a1,1,0,0,1,0,2Z"/></g><path class="cls-16" d="M121.73,66A26.48,26.48,0,0,0,123,57.73c0-5.29-2.91-8.73-6.5-8.73s-6.5,3.5-6.5,8.73A26.48,26.48,0,0,0,111.27,66Z"/><path class="cls-17" d="M118.51,49.38a5.48,5.48,0,0,0-2-.38c-3.59,0-6.5,3.5-6.5,8.73A26.48,26.48,0,0,0,111.27,66h4A26.48,26.48,0,0,1,114,57.73C114,53.51,115.89,50.42,118.51,49.38Z"/><path class="cls-4" d="M121.73,67H111.27a1,1,0,0,1-1-.68A27.44,27.44,0,0,1,109,57.73c0-5.64,3.15-9.73,7.5-9.73s7.5,4.09,7.5,9.73a27.44,27.44,0,0,1-1.32,8.59A1,1,0,0,1,121.73,67ZM112,65h9a25.91,25.91,0,0,0,1-7.27c0-4.48-2.31-7.73-5.5-7.73s-5.5,3.25-5.5,7.73A25.91,25.91,0,0,0,112,65Z"/><path class="cls-4" d="M111.5,54.5a1.07,1.07,0,0,1-.56-.17l-1.5-1a1,1,0,0,1-.27-1.39,1,1,0,0,1,1.38-.27l1.5,1a1,1,0,0,1-.55,1.83Z"/><path class="cls-4" d="M114.25,51.31a1,1,0,0,1-.73-.32l-1.24-1.31a1,1,0,0,1,1.46-1.37L115,49.62a1,1,0,0,1,0,1.42A1,1,0,0,1,114.25,51.31Z"/><path class="cls-4" d="M118.75,51.31A1,1,0,0,1,118,51a1,1,0,0,1,.06-1.42l1.32-1.22a1,1,0,1,1,1.36,1.47L119.43,51A1,1,0,0,1,118.75,51.31Z"/><path class="cls-4" d="M110.5,60a1.19,1.19,0,0,1-.32,0l-1.5-.5a1,1,0,0,1,.64-1.9l1.5.5a1,1,0,0,1-.32,2Z"/><path class="cls-4" d="M110,65a1,1,0,0,1-.32-2l1.5-.5a1,1,0,0,1,.64,1.9l-1.5.5A1.25,1.25,0,0,1,110,65Z"/><path class="cls-4" d="M122,56a1,1,0,0,1-.83-.45,1,1,0,0,1,.27-1.38l1.5-1a1,1,0,1,1,1.11,1.66l-1.5,1A1,1,0,0,1,122,56Z"/><path class="cls-4" d="M123.5,59h-1a1,1,0,0,1,0-2h1a1,1,0,0,1,0,2Z"/><path class="cls-4" d="M114.5,62.5a1,1,0,0,1-.71-.3l-.5-.5a1,1,0,0,1,0-1.41,1,1,0,0,1,1.42,0l.5.5a1,1,0,0,1,0,1.41A1,1,0,0,1,114.5,62.5Z"/><path class="cls-4" d="M114.5,56.5a1,1,0,0,1-.71-.3l-.5-.5a1,1,0,0,1,0-1.41,1,1,0,0,1,1.42,0l.5.5a1,1,0,0,1,0,1.41A1,1,0,0,1,114.5,56.5Z"/><path class="cls-4" d="M118.5,59.5a1,1,0,0,1-.71-1.71l.5-.5a1,1,0,0,1,1.42,0,1,1,0,0,1,0,1.41l-.5.5A1,1,0,0,1,118.5,59.5Z"/><path class="cls-4" d="M118.5,54.5a1,1,0,0,1-.71-1.71l.5-.5a1,1,0,0,1,1.42,0,1,1,0,0,1,0,1.41l-.5.5A1,1,0,0,1,118.5,54.5Z"/><path class="cls-4" d="M118.5,64.5a1,1,0,0,1-.71-1.71l.5-.5a1,1,0,0,1,1.42,0,1,1,0,0,1,0,1.41l-.5.5A1,1,0,0,1,118.5,64.5Z"/><path class="cls-4" d="M123.5,63.5a1.19,1.19,0,0,1-.32,0l-1.5-.5a1,1,0,0,1,.64-1.9l1.5.5a1,1,0,0,1-.32,2Z"/><polygon class="cls-18" points="122.5 78 110.5 78 109 69 124 69 122.5 78"/><polygon class="cls-19" points="115 78 113 78 112 69 114 69 115 78"/><polygon class="cls-20" points="123.5 72 124 69 109 69 109.5 72 123.5 72"/><path class="cls-4" d="M122.5,79h-12a1,1,0,0,1-1-.84l-1.5-9A1,1,0,0,1,109,68h15a1,1,0,0,1,.76.35,1,1,0,0,1,.23.81l-1.5,9A1,1,0,0,1,122.5,79Zm-11.15-2h10.3l1.17-7H110.18Z"/><rect class="cls-2" height="3" width="17" x="108" y="66"/><rect class="cls-17" height="3" width="2" x="111" y="66"/><path class="cls-4" d="M125,70H108a1,1,0,0,1-1-1V66a1,1,0,0,1,1-1h17a1,1,0,0,1,1,1v3A1,1,0,0,1,125,70Zm-16-2h15V67H109Z"/></g><polygon class="cls-21" points="52 37 36 37 36 115 100 115 100 37 85 37 52 37"/><polygon class="cls-5" points="52 37 36 37 36 40 100 40 100 37 85 37 52 37"/><rect class="cls-22" height="3" width="64" x="36" y="112"/><rect class="cls-12" height="3" width="52" x="42" y="106"/><path class="cls-4" d="M94,110H42a1,1,0,0,1-1-1v-3a1,1,0,0,1,1-1H94a1,1,0,0,1,1,1v3A1,1,0,0,1,94,110Zm-51-2H93v-1H43Z"/><rect class="cls-12" height="11" width="52" x="42" y="95"/><path class="cls-4" d="M94,107H42a1,1,0,0,1-1-1V95a1,1,0,0,1,1-1H94a1,1,0,0,1,1,1v11A1,1,0,0,1,94,107Zm-51-2H93V96H43Z"/><polygon class="cls-13" points="42 43 42 103 86 103 94 95 94 43 42 43"/><path class="cls-4" d="M86,104H42a1,1,0,0,1-1-1V43a1,1,0,0,1,1-1H94a1,1,0,0,1,1,1V95a1.05,1.05,0,0,1-.29.71l-8,8A1,1,0,0,1,86,104Zm-43-2H85.59L93,94.59V44H43Z"/><path class="cls-12" d="M61,32v2H75V32a7,7,0,0,0-7-7h0A7,7,0,0,0,61,32Z"/><path class="cls-13" d="M68,25a7,7,0,0,0-7,7v2h.08a7,7,0,0,1,13.84,0H75V32A7,7,0,0,0,68,25Z"/><path class="cls-4" d="M75,35H61a1,1,0,0,1-1-1V32a8,8,0,0,1,16,0v2A1,1,0,0,1,75,35ZM62,33H74V32a6,6,0,0,0-12,0Z"/><path class="cls-4" d="M100,116H36a1,1,0,0,1-1-1V37a1,1,0,0,1,1-1h64a1,1,0,0,1,1,1v78A1,1,0,0,1,100,116Zm-63-2H99V38H37Z"/><path class="cls-23" d="M82,36H54a4,4,0,0,0-4,4v8a1,1,0,0,0,1,1H85a1,1,0,0,0,1-1V40A4,4,0,0,0,82,36Z"/><path class="cls-11" d="M85,37a3,3,0,0,0-3-3H54a3,3,0,0,0-3,3v9H85Z"/><rect class="cls-23" height="3" width="34" x="51" y="43"/><path class="cls-12" d="M82,34H54a3,3,0,0,0-3,3v3a3,3,0,0,1,3-3H82a3,3,0,0,1,3,3V37A3,3,0,0,0,82,34Z"/><path class="cls-4" d="M58,41H51a1,1,0,0,1,0-2h7a1,1,0,0,1,0,2Z"/><path class="cls-4" d="M85,41H78a1,1,0,0,1,0-2h7a1,1,0,0,1,0,2Z"/><path class="cls-4" d="M85,47H51a1,1,0,0,1-1-1V37a4,4,0,0,1,4-4H82a4,4,0,0,1,4,4v9A1,1,0,0,1,85,47ZM52,45H84V37a2,2,0,0,0-2-2H54a2,2,0,0,0-2,2Z"/><path class="cls-4" d="M68,31a.84.84,0,0,1-.38-.08,1,1,0,0,1-.33-.21,1.58,1.58,0,0,1-.12-.15.76.76,0,0,1-.09-.18A.64.64,0,0,1,67,30.2a.68.68,0,0,1,0-.2,1,1,0,0,1,.29-.71,1,1,0,0,1,.33-.21.93.93,0,0,1,.57-.06.6.6,0,0,1,.19.06.56.56,0,0,1,.17.09l.16.12a1,1,0,0,1,0,1.42l-.16.12a.56.56,0,0,1-.17.09.6.6,0,0,1-.19.06Z"/><polygon class="cls-12" points="86 103 86 95 94 95 86 103"/><path class="cls-4" d="M86,104a.84.84,0,0,1-.38-.08A1,1,0,0,1,85,103V95a1,1,0,0,1,1-1h8a1,1,0,0,1,.92.62,1,1,0,0,1-.21,1.09l-8,8A1,1,0,0,1,86,104Zm1-8v4.59L91.59,96Z"/><path class="cls-24" d="M53,62a1,1,0,0,1-.71-.29l-3-3a1,1,0,0,1,1.42-1.42l2.09,2.1L56.64,53a1,1,0,1,1,1.72,1l-4.5,7.5a1,1,0,0,1-.74.48Z"/><path class="cls-25" d="M86,60H64a1,1,0,0,1,0-2H86a1,1,0,0,1,0,2Z"/><path class="cls-25" d="M74,56H64a1,1,0,0,1,0-2H74a1,1,0,0,1,0,2Z"/><path class="cls-25" d="M80,71H64a1,1,0,0,1,0-2H80a1,1,0,0,1,0,2Z"/><path class="cls-25" d="M77,86H64a1,1,0,0,1,0-2H77a1,1,0,0,1,0,2Z"/><path class="cls-24" d="M53,77a1,1,0,0,1-.71-.29l-3-3a1,1,0,0,1,1.42-1.42l2.09,2.1L56.64,68a1,1,0,1,1,1.72,1l-4.5,7.5a1,1,0,0,1-.74.48Z"/><path class="cls-25" d="M86,75H64a1,1,0,0,1,0-2H86a1,1,0,0,1,0,2Z"/><path class="cls-24" d="M53,92a1,1,0,0,1-.71-.29l-3-3a1,1,0,0,1,1.42-1.42l2.09,2.1L56.64,83a1,1,0,1,1,1.72,1l-4.5,7.5a1,1,0,0,1-.74.48Z"/><path class="cls-25" d="M86,90H64a1,1,0,0,1,0-2H86a1,1,0,0,1,0,2Z"/><rect class="cls-26" height="57" rx="3" ry="3" width="32" x="13" y="62"/><path class="cls-13" d="M16,119H42a3,3,0,0,0,3-3V85.7L13,102.94V116A3,3,0,0,0,16,119Z"/><polygon class="cls-13" points="13 96.42 13 99.68 45.01 82.43 45 79.17 13 96.42"/><path class="cls-24" d="M20.5,79.5a1,1,0,0,1-.71-.29l-2-2a1,1,0,0,1,1.42-1.42l1.09,1.1L22.64,73a1,1,0,0,1,1.72,1l-3,5a1,1,0,0,1-.74.48Z"/><path class="cls-25" d="M40,79H28a1,1,0,0,1,0-2H40a1,1,0,0,1,0,2Z"/><path class="cls-25" d="M33,75H28a1,1,0,0,1,0-2h5a1,1,0,0,1,0,2Z"/><path class="cls-24" d="M20.5,93.5a1,1,0,0,1-.71-.29l-2-2a1,1,0,0,1,1.42-1.42l1.09,1.1L22.64,87a1,1,0,0,1,1.72,1l-3,5a1,1,0,0,1-.74.48Z"/><path class="cls-25" d="M40,93H28a1,1,0,0,1,0-2H40a1,1,0,0,1,0,2Z"/><path class="cls-25" d="M33,89H28a1,1,0,0,1,0-2h5a1,1,0,0,1,0,2Z"/><path class="cls-24" d="M20.5,107.5a1,1,0,0,1-.71-.29l-2-2a1,1,0,0,1,1.42-1.42l1.09,1.1,2.34-3.9a1,1,0,0,1,1.72,1l-3,5a1,1,0,0,1-.74.48Z"/><path class="cls-25" d="M40,107H28a1,1,0,0,1,0-2H40a1,1,0,0,1,0,2Z"/><path class="cls-25" d="M33,103H28a1,1,0,0,1,0-2h5a1,1,0,0,1,0,2Z"/><path class="cls-27" d="M16,119H42a3,3,0,0,0,3-3V85.7L13,102.94V116A3,3,0,0,0,16,119Z"/><polygon class="cls-27" points="13 96.42 13 99.68 45.01 82.43 45 79.17 13 96.42"/><path class="cls-13" d="M42,116H16c-2.21,0-3-1.79-3-4v4a3,3,0,0,0,3,3H42a3,3,0,0,0,3-3v-4C45,114.21,44.21,116,42,116Z"/><path class="cls-28" d="M42,62H16a3,3,0,0,0-3,3v4c0-2.21.79-4,3-4H42c2.21,0,3,1.79,3,4V65A3,3,0,0,0,42,62Z"/><path class="cls-29" d="M37,62v2a2,2,0,0,1-2,2H23a2,2,0,0,1-2-2V62Z"/><path class="cls-30" d="M42,120H16a4,4,0,0,1-4-4V65a4,4,0,0,1,4-4H42a4,4,0,0,1,4,4v51A4,4,0,0,1,42,120ZM16,63a2,2,0,0,0-2,2v51a2,2,0,0,0,2,2H42a2,2,0,0,0,2-2V65a2,2,0,0,0-2-2Z"/><path class="cls-30" d="M35,67H23a3,3,0,0,1-3-3V62a1,1,0,0,1,2,0v2a1,1,0,0,0,1,1H35a1,1,0,0,0,1-1V62a1,1,0,0,1,2,0v2A3,3,0,0,1,35,67Z"/><circle class="cls-26" cx="98" cy="97" r="22"/><path class="cls-13" d="M98,77.75a22,22,0,0,1,22,20.63c0-.46,0-.92,0-1.38a22,22,0,0,0-44,0c0,.46,0,.92,0,1.38A22,22,0,0,1,98,77.75Z"/><path class="cls-31" d="M98,116.25a22,22,0,0,1-22-20.63c0,.46,0,.92,0,1.38a22,22,0,0,0,44,0c0-.46,0-.92,0-1.38A22,22,0,0,1,98,116.25Z"/><path class="cls-30" d="M98,120a23,23,0,1,1,23-23A23,23,0,0,1,98,120Zm0-44a21,21,0,1,0,21,21A21,21,0,0,0,98,76Z"/><circle class="cls-26" cx="98" cy="97" r="18"/><path class="cls-17" d="M98,79a18,18,0,0,0-17.06,23.7l32.25-15.32A18,18,0,0,0,98,79Z"/><path class="cls-30" d="M98,100a3,3,0,1,1,3-3A3,3,0,0,1,98,100Zm0-4a1,1,0,1,0,1,1A1,1,0,0,0,98,96Z"/><path class="cls-30" d="M98,96a1,1,0,0,1-1-1V87a1,1,0,0,1,2,0v8A1,1,0,0,1,98,96Z"/><path class="cls-30" d="M96,98H91a1,1,0,0,1,0-2h5a1,1,0,0,1,0,2Z"/><g class="cls-14"><path class="cls-30" d="M98,84l-.2,0a.64.64,0,0,1-.18-.06.76.76,0,0,1-.18-.09l-.15-.12-.12-.15a.76.76,0,0,1-.09-.18A.64.64,0,0,1,97,83.2a1,1,0,0,1,0-.4.64.64,0,0,1,.06-.18.76.76,0,0,1,.09-.18l.12-.15.15-.12a.76.76,0,0,1,.18-.09A.64.64,0,0,1,97.8,82a.86.86,0,0,1,.39,0,.6.6,0,0,1,.19.06.56.56,0,0,1,.17.09l.16.12.12.15a.76.76,0,0,1,.09.18.64.64,0,0,1,.06.18,1,1,0,0,1,0,.4.64.64,0,0,1-.06.18.76.76,0,0,1-.09.18l-.12.15-.16.12a.56.56,0,0,1-.17.09.6.6,0,0,1-.19.06Z"/><path class="cls-30" d="M98,112l-.2,0a.64.64,0,0,1-.18-.06.76.76,0,0,1-.18-.09,1.58,1.58,0,0,1-.15-.12,1,1,0,0,1-.21-.33.94.94,0,0,1,0-.76,1,1,0,0,1,.21-.33,1.58,1.58,0,0,1,.15-.12.76.76,0,0,1,.18-.09.64.64,0,0,1,.18-.06.86.86,0,0,1,.39,0,.6.6,0,0,1,.19.06.56.56,0,0,1,.17.09,1,1,0,0,1,.16.12,1.15,1.15,0,0,1,.21.33.94.94,0,0,1,0,.76,1,1,0,0,1-.21.33,1,1,0,0,1-.16.12.56.56,0,0,1-.17.09.6.6,0,0,1-.19.06Z"/><path class="cls-30" d="M84,98a1.05,1.05,0,0,1-.71-.29,1,1,0,0,1-.21-.33A.84.84,0,0,1,83,97a1,1,0,0,1,.29-.71A1,1,0,0,1,84.2,96a.64.64,0,0,1,.18.06.76.76,0,0,1,.18.09,1.58,1.58,0,0,1,.15.12A1.05,1.05,0,0,1,85,97a1,1,0,0,1-.08.38,1.15,1.15,0,0,1-.21.33l-.15.12a.76.76,0,0,1-.18.09.64.64,0,0,1-.18.06Z"/><path class="cls-30" d="M112,98a1,1,0,0,1-.38-.08,1,1,0,0,1-.33-.21,1,1,0,0,1,1.42-1.42.93.93,0,0,1,.21.33.94.94,0,0,1,0,.76.9.9,0,0,1-.54.54A1,1,0,0,1,112,98Z"/><path class="cls-30" d="M91,85.88a1,1,0,0,1-.71-.3.61.61,0,0,1-.12-.15.56.56,0,0,1-.09-.17.6.6,0,0,1-.06-.19,1.23,1.23,0,0,1,0-.19.88.88,0,0,1,.08-.39,1,1,0,0,1,.21-.32,1,1,0,0,1,.9-.27l.19,0,.17.09.16.13a1,1,0,0,1,.21.32,1,1,0,0,1,.08.39,1.23,1.23,0,0,1,0,.19.7.7,0,0,1-.06.19.56.56,0,0,1-.09.17,1,1,0,0,1-.12.15l-.16.13-.17.09-.19.06Z"/><path class="cls-30" d="M105,110.13a1,1,0,0,1-.38-.08,1.06,1.06,0,0,1-.33-.22,1,1,0,0,1-.29-.7.85.85,0,0,1,.08-.39,1,1,0,0,1,.21-.32.91.91,0,0,1,.33-.22,1,1,0,0,1,1.08.22.87.87,0,0,1,.22.32,1,1,0,0,1,.08.39,1,1,0,0,1-1,1Z"/><path class="cls-30" d="M85.88,105a1,1,0,0,1-.39-.08,1,1,0,0,1-.32-.21,1.06,1.06,0,0,1-.22-.33,1,1,0,0,1-.07-.38,1,1,0,0,1,1.19-1,.6.6,0,0,1,.19.06.56.56,0,0,1,.17.09l.15.12a1,1,0,0,1,.22,1.09.91.91,0,0,1-.22.33A1,1,0,0,1,85.88,105Z"/><path class="cls-30" d="M110.12,91a1,1,0,0,1-.7-.29.91.91,0,0,1-.22-.33,1,1,0,0,1,1.63-1.09,1.19,1.19,0,0,1,.22.33,1.07,1.07,0,0,1,0,.76,1.06,1.06,0,0,1-.22.33A1,1,0,0,1,110.12,91Z"/><path class="cls-30" d="M85.88,91a1,1,0,0,1-.71-.29,1.19,1.19,0,0,1-.22-.33,1.07,1.07,0,0,1,0-.76,1.19,1.19,0,0,1,.22-.33,1,1,0,0,1,.32-.21,1,1,0,0,1,1.31.54,1,1,0,0,1-.22,1.09l-.15.12a.56.56,0,0,1-.17.09.6.6,0,0,1-.19.06Z"/><path class="cls-30" d="M110.12,105a1,1,0,0,1-.7-.29,1,1,0,0,1-.3-.71,1,1,0,0,1,.08-.38.91.91,0,0,1,.22-.33,1,1,0,0,1,.32-.21,1,1,0,0,1,1.09.21,1.06,1.06,0,0,1,.22.33,1,1,0,0,1,.07.38,1,1,0,0,1-1,1Z"/><path class="cls-30" d="M91,110.12a1,1,0,0,1-.71-.29,1,1,0,0,1-.21-.32.87.87,0,0,1-.08-.38.85.85,0,0,1,.08-.39,1,1,0,0,1,.21-.32,1,1,0,0,1,.9-.28l.19.06.17.09.16.13a1,1,0,0,1,.21.32,1,1,0,0,1,.08.39,1,1,0,0,1-.29.7l-.16.13-.17.09-.19,0A.62.62,0,0,1,91,110.12Z"/><path class="cls-30" d="M105,85.88a1,1,0,0,1-.38-.08.91.91,0,0,1-.33-.22,1,1,0,0,1-.29-.7.88.88,0,0,1,.08-.39,1,1,0,0,1,.21-.32,1.06,1.06,0,0,1,.33-.22,1,1,0,0,1,1.08.22.87.87,0,0,1,.22.32,1,1,0,0,1,.08.39,1,1,0,0,1-1,1Z"/></g><path class="cls-13" d="M98,112A18,18,0,0,1,80.08,95.5,14.91,14.91,0,0,0,80,97a18,18,0,0,0,36,0,14.91,14.91,0,0,0-.08-1.5A18,18,0,0,1,98,112Z"/><path class="cls-31" d="M98,82.43a18,18,0,0,0-17.91,16.2C80,98.09,80,97.55,80,97a18,18,0,0,1,36,0c0,.55,0,1.09-.09,1.63A18,18,0,0,0,98,82.43Z"/><path class="cls-17" d="M98,79a18,18,0,0,0-17.06,23.7l32.25-15.32A18,18,0,0,0,98,79Z"/><path class="cls-17" d="M83.11,107.12l32.13-15.27a17.64,17.64,0,0,0-1-2.53L81.77,104.75A19,19,0,0,0,83.11,107.12Z"/><path class="cls-30" d="M98,116a19,19,0,1,1,19-19A19,19,0,0,1,98,116Zm0-36a17,17,0,1,0,17,17A17,17,0,0,0,98,80Z"/></svg>