<svg xmlns="http://www.w3.org/2000/svg" width="110" height="50">
    <rect width="105" height="45" x="2.5" y="2.5" fill="white" rx="2" ry="2" stroke-width="2.5" stroke-opacity="0.1"
        stroke="grey" fill-opacity=".80">
    </rect>
    <svg xmlns="http://www.w3.org/2000/svg" width="12" height="32" x="7.75" y="9">
        <line x1="10.5" x2="10.5" y1="0" y2="26" stroke="black"/>
        <g transform="rotate(-20)">
            <ellipse rx="5.5" ry="3.8" cx="-3" cy="26.6"/>
        </g>
    </svg>
    <svg xmlns="http://www.w3.org/2000/svg" width="12" height="32" x="35.25" y="9">
        <line x1="10.5" x2="10.5" y1="0" y2="26" stroke="black"/>
        <g transform="rotate(-20)">
            <ellipse rx="5.5" ry="3.8" cx="-3" cy="26.6"/>
        </g>
    </svg>
    <svg xmlns="http://www.w3.org/2000/svg" width="12" height="32" x="62.75" y="9">
        <line x1="10.5" x2="10.5" y1="0" y2="26" stroke="black"/>
        <g transform="rotate(-20)">
            <ellipse rx="5.5" ry="3.8" cx="-3" cy="26.6"/>
        </g>
    </svg>
    <svg xmlns="http://www.w3.org/2000/svg" width="12" height="32" x="90.25" y="9">
        <line x1="10.5" x2="10.5" y1="0" y2="26" stroke="black"/>
        <g transform="rotate(-20)">
            <ellipse rx="5.5" ry="3.8" cx="-3" cy="26.6"/>
        </g>
    </svg>
</svg>